<?xml version="1.0" encoding="UTF-8" standalone="no"?>
<svg
   xmlns:dc="http://purl.org/dc/elements/1.1/"
   xmlns:cc="http://creativecommons.org/ns#"
   xmlns:rdf="http://www.w3.org/1999/02/22-rdf-syntax-ns#"
   xmlns:svg="http://www.w3.org/2000/svg"
   xmlns="http://www.w3.org/2000/svg"
   version="1.0"
   width="48"
   height="48"
   id="svg14662">
  <defs
     id="defs8" />
  <metadata
     id="metadata87">
    <rdf:RDF>
      <cc:Work
         rdf:about="">
        <dc:format>image/svg+xml</dc:format>
        <dc:type
           rdf:resource="http://purl.org/dc/dcmitype/StillImage" />
        <cc:license
           rdf:resource="http://creativecommons.org/licenses/GPL/2.0/" />
        <dc:title></dc:title>
        <dc:creator>
          <cc:Agent>
            <dc:title>STyx</dc:title>
          </cc:Agent>
        </dc:creator>
        <dc:source>Nuvola_apps_edu_languages.svg</dc:source>
        <dc:subject>
          <rdf:Bag>
            <rdf:li>User</rdf:li>
            <rdf:li>Utilisateur</rdf:li>
            <rdf:li>namespace</rdf:li>
          </rdf:Bag>
        </dc:subject>
        <dc:date />
        <dc:rights>
          <cc:Agent>
            <dc:title>GFDL</dc:title>
          </cc:Agent>
        </dc:rights>
      </cc:Work>
      <cc:License
         rdf:about="http://creativecommons.org/licenses/GPL/2.0/">
        <cc:permits
           rdf:resource="http://web.resource.org/cc/Reproduction" />
        <cc:permits
           rdf:resource="http://web.resource.org/cc/Distribution" />
        <cc:requires
           rdf:resource="http://web.resource.org/cc/Notice" />
        <cc:permits
           rdf:resource="http://web.resource.org/cc/DerivativeWorks" />
        <cc:requires
           rdf:resource="http://web.resource.org/cc/ShareAlike" />
        <cc:requires
           rdf:resource="http://web.resource.org/cc/SourceCode" />
      </cc:License>
    </rdf:RDF>
  </metadata>
  <path
     style="fill:#b28700;fill-opacity:1;fill-rule:evenodd;stroke:#513a00;stroke-width:1.03030097;stroke-linecap:butt;stroke-linejoin:miter;stroke-miterlimit:4;stroke-opacity:1;stroke-dasharray:none"
     d="m 14.004353,40.490518 6.970099,1.023745 0.06391,-3.940875 c -6.166726,-6.359303 2.271357,-9.199751 3.51623,-3.925675 l 1.987701,3.158578 c 1.138602,10.473143 8.478884,7.636255 13.07982,10.678558 C 34.053042,40.826728 34.13345,37.5243 34.667544,34.49135 L 33.070993,32.35857 C 29.253564,30.88158 30.689197,29.928231 30.464358,28.809366 L 40.739653,28.02449 C 39.273912,12.492345 12.695622,14.150248 16.379602,33.161735 c 0.744275,2.596042 -0.533597,4.990515 -2.375249,7.328783 z"
     id="path3293" />
  <path
     style="fill:#b28700;fill-opacity:1;fill-rule:evenodd;stroke:#513a00;stroke-width:1.03030097;stroke-linecap:butt;stroke-linejoin:miter;stroke-miterlimit:4;stroke-opacity:1;stroke-dasharray:none"
     d="m 32.778059,15.519646 1.629356,-2.672495 C 25.544097,9.8368245 12.681151,13.728216 11.774175,26.390195 l 2.474263,-0.116547 c 1.045329,-5.978746 6.125913,-13.718019 18.529621,-10.754002 z"
     id="path3295" />
  <path
     style="fill:#b21800;fill-opacity:1;fill-rule:evenodd;stroke:#7d0000;stroke-width:1.03030097;stroke-linecap:butt;stroke-linejoin:miter;stroke-miterlimit:4;stroke-opacity:1;stroke-dasharray:none"
     d="M 36.053355,10.903268 C 39.589711,5.6783069 38.169193,6.4846075 42.492774,2.2583293 40.010356,1.0065198 36.321552,0.79409461 33.983399,0.66138688 33.416561,0.6292144 32.526116,4.9149367 32.302679,4.9517227 32.029368,4.9967193 32.436655,0.63638339 32.036534,0.60127569 29.623491,0.38954846 26.338046,0.57699035 24.888652,1.0668958 24.614411,2.2305372 24.248641,2.7274086 24.141516,3.459223 24.06976,3.9494173 23.792658,1.7290595 23.372667,1.475752 11.616171,5.0484508 4.7726589,12.445828 4.5151505,26.284179 5.9985943,25.769044 8.0071427,26.861627 9.6596176,26.1352 10.047806,20.531033 15.121656,5.9727467 36.053355,10.903268 z"
     id="path3297" />
</svg>
